# xmcd
#
# Track frame offsets: 
#        150
#        12211
#        22837
#        35783
#        46702
#        57669
#        65319
#        77629
#        88663
#        99075
#        111850
#        127204
#        141331
#        156016
#        171090
#        186003
#        196838
#        209275
#        219105
#        230022
#        242886
#
# Disc length: 3378 seconds
#
# Revision: 0
# Processed by: cddbd v1.5.1PL0 Copyright (c) Steve Scherf et al.
# Submitted via: ExactAudioCopy v0.95a5
#
DISCID=1b0d3015
DTITLE=Jim Reeves - He'll Have To Go  Tall Tales And Short Tempers
DYEAR=1960
DGENRE=Country
TTITLE0=Am I losing You
TTITLE1=He'll Have To Go
TTITLE2=Have I Told You Lately
TTITLE3=How's The World Treating You
TTITLE4=I Love You More
TTITLE5='Till The End Of The World
TTITLE6=I've Lived A Lot In My Time
TTITLE7=Oklahoma Hills
TTITLE8=I'm Getting Better
TTITLE9=Bimbo
TTITLE10=The Blizzard
TTITLE11=The Streets Of Laredo
TTITLE12=That Silver-Haired Daddy Of Mine
TTITLE13=Rodger Young
TTITLE14=The Fools Paradise
TTITLE15=It's Nothin' To Me 
TTITLE16=The Mighty Everglades
TTITLE17=Danny Boy
TTITLE18=The Letter Edged In Black
TTITLE19=The Tie That Binds
TTITLE20=The Wreck Of The Number Nine
EXTD=
EXTT0=
EXTT1=
EXTT2=
EXTT3=
EXTT4=
EXTT5=
EXTT6=
EXTT7=
EXTT8=
EXTT9=
EXTT10=
EXTT11=
EXTT12=
EXTT13=
EXTT14=
EXTT15=
EXTT16=
EXTT17=
EXTT18=
EXTT19=
EXTT20=
PLAYORDER=
